REM DIRINDEX 1\3,1\4,1\5,1\6,1\2\7,1\2\8,1\2\9,1\10
REM DIRNAME folder01,folder02,folder03,folder04,folder05,folder06,folder07,folder08,folder09,folder10
TITLE ""
FILE "2-04 Level 4-564-575.mp3" MP3
  TRACK 01 AUDIO
    TITLE "0:"
    INDEX 01 00:00:00
  TRACK 02 AUDIO
    TITLE "7:cjc056_1965"
    INDEX 01 00:00:07
  TRACK 03 AUDIO
    TITLE "0:"
    INDEX 01 00:01:03
  TRACK 04 AUDIO
    TITLE "8:cjc056_1966"
    INDEX 01 00:01:17
  TRACK 05 AUDIO
    TITLE "0:"
    INDEX 01 00:02:26
  TRACK 06 AUDIO
    TITLE "9:cjc056_1967"
    INDEX 01 00:02:42
  TRACK 07 AUDIO
    TITLE "0:"
    INDEX 01 00:05:05
  TRACK 08 AUDIO
    TITLE "7:cjc056_1968"
    INDEX 01 00:05:57
  TRACK 09 AUDIO
    TITLE "0:"
    INDEX 01 00:06:69
  TRACK 10 AUDIO
    TITLE "8:cjc056_1969"
    INDEX 01 00:07:07
  TRACK 11 AUDIO
    TITLE "0:"
    INDEX 01 00:08:32
  TRACK 12 AUDIO
    TITLE "9:cjc056_1970"
    INDEX 01 00:08:44
  TRACK 13 AUDIO
    TITLE "0:"
    INDEX 01 00:10:45
  TRACK 14 AUDIO
    TITLE "7:cjc056_1971"
    INDEX 01 00:11:21
  TRACK 15 AUDIO
    TITLE "0:"
    INDEX 01 00:12:16
  TRACK 16 AUDIO
    TITLE "8:cjc056_1972"
    INDEX 01 00:12:30
  TRACK 17 AUDIO
    TITLE "0:"
    INDEX 01 00:13:43
  TRACK 18 AUDIO
    TITLE "9:cjc056_1973"
    INDEX 01 00:13:57
  TRACK 19 AUDIO
    TITLE "0:"
    INDEX 01 00:15:21
  TRACK 20 AUDIO
    TITLE "8:cjc056_1974"
    INDEX 01 00:15:50
  TRACK 21 AUDIO
    TITLE "0:"
    INDEX 01 00:16:49
  TRACK 22 AUDIO
    TITLE "9:cjc056_1975"
    INDEX 01 00:16:63
  TRACK 23 AUDIO
    TITLE "0:"
    INDEX 01 00:17:74
  TRACK 24 AUDIO
    TITLE "7:cjc056_1976"
    INDEX 01 00:18:50
  TRACK 25 AUDIO
    TITLE "0:"
    INDEX 01 00:19:50
  TRACK 26 AUDIO
    TITLE "8:cjc056_1977"
    INDEX 01 00:19:65
  TRACK 27 AUDIO
    TITLE "0:"
    INDEX 01 00:21:11
  TRACK 28 AUDIO
    TITLE "9:cjc056_1978"
    INDEX 01 00:21:25
  TRACK 29 AUDIO
    TITLE "0:"
    INDEX 01 00:22:68
  TRACK 30 AUDIO
    TITLE "7:cjc056_1979"
    INDEX 01 00:23:46
  TRACK 31 AUDIO
    TITLE "0:"
    INDEX 01 00:24:55
  TRACK 32 AUDIO
    TITLE "8:cjc056_1980"
    INDEX 01 00:24:69
  TRACK 33 AUDIO
    TITLE "0:"
    INDEX 01 00:26:24
  TRACK 34 AUDIO
    TITLE "9:cjc056_1981"
    INDEX 01 00:26:38
  TRACK 35 AUDIO
    TITLE "0:"
    INDEX 01 00:28:21
  TRACK 36 AUDIO
    TITLE "7:cjc056_1982"
    INDEX 01 00:28:72
  TRACK 37 AUDIO
    TITLE "0:"
    INDEX 01 00:30:08
  TRACK 38 AUDIO
    TITLE "8:cjc056_1983"
    INDEX 01 00:30:22
  TRACK 39 AUDIO
    TITLE "0:"
    INDEX 01 00:31:67
  TRACK 40 AUDIO
    TITLE "9:cjc056_1984"
    INDEX 01 00:32:05
  TRACK 41 AUDIO
    TITLE "0:"
    INDEX 01 00:34:10
  TRACK 42 AUDIO
    TITLE "7:cjc056_1985"
    INDEX 01 00:34:63
  TRACK 43 AUDIO
    TITLE "0:"
    INDEX 01 00:36:07
  TRACK 44 AUDIO
    TITLE "8:cjc056_1986"
    INDEX 01 00:36:21
  TRACK 45 AUDIO
    TITLE "0:"
    INDEX 01 00:37:32
  TRACK 46 AUDIO
    TITLE "9:cjc056_1987"
    INDEX 01 00:37:46
  TRACK 47 AUDIO
    TITLE "0:"
    INDEX 01 00:39:27
  TRACK 48 AUDIO
    TITLE "7:cjc056_1988"
    INDEX 01 00:40:05
  TRACK 49 AUDIO
    TITLE "0:"
    INDEX 01 00:41:12
  TRACK 50 AUDIO
    TITLE "8:cjc056_1989"
    INDEX 01 00:41:28
  TRACK 51 AUDIO
    TITLE "0:"
    INDEX 01 00:42:47
  TRACK 52 AUDIO
    TITLE "9:cjc056_1990"
    INDEX 01 00:42:61
  TRACK 53 AUDIO
    TITLE "0:"
    INDEX 01 00:45:37
  TRACK 54 AUDIO
    TITLE "7:cjc056_1991"
    INDEX 01 00:46:15
  TRACK 55 AUDIO
    TITLE "0:"
    INDEX 01 00:47:17
  TRACK 56 AUDIO
    TITLE "8:cjc056_1992"
    INDEX 01 00:47:27
  TRACK 57 AUDIO
    TITLE "0:"
    INDEX 01 00:48:22
  TRACK 58 AUDIO
    TITLE "9:cjc056_1993"
    INDEX 01 00:48:34
  TRACK 59 AUDIO
    TITLE "0:"
    INDEX 01 00:50:58
  TRACK 60 AUDIO
    TITLE "7:cjc056_1994"
    INDEX 01 00:51:36
  TRACK 61 AUDIO
    TITLE "0:"
    INDEX 01 00:52:53
  TRACK 62 AUDIO
    TITLE "8:cjc056_1995"
    INDEX 01 00:52:67
  TRACK 63 AUDIO
    TITLE "0:"
    INDEX 01 00:54:09
  TRACK 64 AUDIO
    TITLE "9:cjc056_1996"
    INDEX 01 00:54:23
  TRACK 65 AUDIO
    TITLE "0:"
    INDEX 01 00:57:05
  TRACK 66 AUDIO
    TITLE "7:cjc056_1997"
    INDEX 01 00:57:58
  TRACK 67 AUDIO
    TITLE "0:"
    INDEX 01 00:58:66
  TRACK 68 AUDIO
    TITLE "8:cjc056_1998"
    INDEX 01 00:59:04
  TRACK 69 AUDIO
    TITLE "0:"
    INDEX 01 01:00:27
  TRACK 70 AUDIO
    TITLE "9:cjc056_1999"
    INDEX 01 01:00:41
  TRACK 71 AUDIO
    TITLE "0:"
    INDEX 01 01:02:01
  TRACK 72 AUDIO
    TITLE "7:cjc056_2000"
    INDEX 01 01:02:54
  TRACK 73 AUDIO
    TITLE "0:"
    INDEX 01 01:03:53
  TRACK 74 AUDIO
    TITLE "8:cjc056_2001"
    INDEX 01 01:03:67
  TRACK 75 AUDIO
    TITLE "0:"
    INDEX 01 01:05:11
  TRACK 76 AUDIO
    TITLE "9:cjc056_2002"
    INDEX 01 01:05:24
  TRACK 77 AUDIO
    TITLE "0:"
    INDEX 01 01:07:57
